<svg width="22" height="19" viewBox="0 0 22 19" fill="none" xmlns="http://www.w3.org/2000/svg">
<path d="M22 2.5401C21.1819 2.90149 20.3101 3.14103 19.4012 3.25733C20.3363 2.69518 21.0499 1.81179 21.3854 0.747026C20.5136 1.27041 19.5511 1.6401 18.5254 1.84641C17.6976 0.958872 16.5179 0.40918 15.2309 0.40918C12.7339 0.40918 10.7236 2.4501 10.7236 4.9521C10.7236 5.3121 10.7539 5.65826 10.8281 5.98779C7.0785 5.80364 3.76063 3.99395 1.53175 1.23718C1.14262 1.91703 0.914375 2.69518 0.914375 3.53287C0.914375 5.1058 1.71875 6.5001 2.91775 7.30733C2.19313 7.29349 1.48225 7.08164 0.88 6.74795C0.88 6.7618 0.88 6.7798 0.88 6.79779C0.88 9.00487 2.44337 10.8381 4.4935 11.2604C4.12637 11.3615 3.72625 11.4099 3.311 11.4099C3.02225 11.4099 2.73075 11.3933 2.45712 11.3324C3.0415 13.131 4.69975 14.4533 6.6715 14.4963C5.137 15.705 3.18863 16.4333 1.07938 16.4333C0.7095 16.4333 0.35475 16.4167 0 16.371C1.99787 17.6684 4.36562 18.4092 6.919 18.4092C15.2185 18.4092 19.756 11.4861 19.756 5.48518C19.756 5.28441 19.7491 5.09056 19.7395 4.8981C20.6346 4.25841 21.3867 3.45949 22 2.5401Z" fill="white"/>
</svg>
