<svg width="207" height="175" viewBox="0 0 207 175" fill="none" xmlns="http://www.w3.org/2000/svg">
<path d="M74.04 0.47998L146.81 119.63H0L74.04 0.47998Z" fill="#FAFAFA"/>
<path d="M138.19 112.77H126.3L122.13 105.04H132.85L138.19 112.77Z" fill="#111110"/>
<path d="M90.03 34.4199H78.14L73.98 26.7H84.7L90.03 34.4199Z" fill="#111110"/>
<path d="M98.06 47.48H86.17L82.01 39.75H92.73L98.06 47.48Z" fill="#111110"/>
<path d="M106.08 60.5401H94.19L90.03 52.8101H100.75L106.08 60.5401Z" fill="#111110"/>
<path d="M114.11 73.5901H102.22L98.0601 65.8701H108.78L114.11 73.5901Z" fill="#111110"/>
<path d="M122.13 86.6499H110.24L106.08 78.9199H116.8L122.13 86.6499Z" fill="#111110"/>
<path d="M130.16 99.71H118.27L114.11 91.98H124.83L130.16 99.71Z" fill="#111110"/>
<path d="M131.93 0L204.7 119.15H57.8899L131.93 0Z" fill="#FAFAFA"/>
<path d="M194.56 110.71H182.67L178.51 102.98H189.23L194.56 110.71Z" fill="#0E0E0E"/>
<path d="M143.95 26.7H132.06L127.9 18.97H138.62L143.95 26.7Z" fill="#0E0E0E"/>
<path d="M154.24 43.6199H142.35L138.19 35.8899H148.91L154.24 43.6199Z" fill="#0E0E0E"/>
<path d="M163.98 60.0501H152.09L147.93 52.3301H158.65L163.98 60.0501Z" fill="#0E0E0E"/>
<path d="M173.81 77.46H161.92L157.76 69.73H168.48L173.81 77.46Z" fill="#0E0E0E"/>
<path d="M184.37 94.3799H172.48L168.32 86.6499H179.04L184.37 94.3799Z" fill="#0E0E0E"/>
<path d="M28.7368 127.37L24.5181 160.44H20.9556L15.3306 141.807L9.729 160.44H6.07275L1.94775 127.37H5.74463L8.53369 154.252L13.4087 137.987H17.2524L22.1509 154.299L24.9868 127.37H28.7368ZM86.1587 160.44H82.1274L78.4712 148.862H67.6196L63.9165 160.44H59.9321L70.7368 127.37H75.354L86.1587 160.44ZM77.3696 145.51L73.0337 131.823L68.7212 145.51H77.3696ZM143.698 127.37L132.917 160.44H128.299L117.495 127.37H121.526L130.596 155.987L139.713 127.37H143.698ZM200.604 127.37L190.268 146.284V160.44H186.448V146.284L176.112 127.37H180.448L188.346 142.252L196.268 127.37H200.604Z" fill="#FAFAFA"/>
</svg>
